<svg width="16" height="17" viewBox="0 0 16 17" fill="none" xmlns="http://www.w3.org/2000/svg">
<path d="M6.97524 0.521739C5.84791 0.521739 4.92555 1.40217 4.92555 2.47826H2.87586C1.74853 2.47826 0.826172 3.3587 0.826172 4.43478H15.174C15.174 3.3587 14.2516 2.47826 13.1243 2.47826H11.0746C11.0746 1.40217 10.1523 0.521739 9.02493 0.521739H6.97524ZM2.87586 6.3913V15.8022C2.87586 16.0174 3.03984 16.1739 3.2653 16.1739H12.7554C12.9808 16.1739 13.1448 16.0174 13.1448 15.8022V6.3913H11.0951V13.2391C11.0951 13.787 10.6442 14.2174 10.0703 14.2174C9.49636 14.2174 9.04543 13.787 9.04543 13.2391V6.3913H6.99574V13.2391C6.99574 13.787 6.54481 14.2174 5.97089 14.2174C5.39698 14.2174 4.94605 13.787 4.94605 13.2391V6.3913H2.89636H2.87586Z" fill="black"/>
</svg>
