<svg width="192" height="36" viewBox="0 0 192 36" fill="none" xmlns="http://www.w3.org/2000/svg">
<g clip-path="url(#clip0_18_710)">
<path d="M0.0793958 32.6151C0.0793958 32.6151 0.0288712 32.6223 0 32.6295C0 21.7819 0 10.9414 0 0.093811C0.0288712 0.093811 0.0505246 0.101028 0.0793958 0.108246C0.0793958 0.252592 0.0649602 0.389721 0.0649602 0.534068C0.0649602 11.0858 0.0649602 21.6375 0.0649602 32.1965C0.0649602 32.3408 0.072178 32.4779 0.0793958 32.6223V32.6151Z" fill="#B3B4B4"/>
<path d="M0.0785568 32.6151C0.0785568 32.4707 0.06427 32.3336 0.06427 32.1893C0.06427 21.6375 0.06427 11.0858 0.06427 0.526865C0.06427 0.382518 0.0714134 0.245389 0.0785568 0.101043C0.314289 -0.0505211 0.48573 -0.0433037 0.707175 0.194868C1.95727 1.53007 3.22879 2.84362 4.49317 4.16439C7.15051 6.93585 9.81499 9.71451 12.4723 12.486C13.6939 13.7634 14.9082 15.0337 16.1298 16.3111C17.7299 17.9856 19.33 19.66 20.9301 21.3416C21.0158 21.4354 21.073 21.5581 21.1373 21.6664C21.1801 21.6375 21.2158 21.6087 21.2587 21.5798V14.8244H25.9662V32.7883C25.7376 32.9904 25.5876 32.9471 25.3661 32.7089C23.4946 30.7097 21.6016 28.7322 19.7157 26.7474C17.2513 24.1492 14.7868 21.5509 12.3223 18.9455C10.8651 17.4082 9.40068 15.8637 7.94343 14.3264C6.92192 13.251 5.90042 12.1756 4.88606 11.1002C4.85748 11.0714 4.82891 11.0425 4.74319 10.9703V32.6151H0.0785568Z" fill="#282928"/>
<path d="M66.5907 20.6054C66.8835 20.9302 67.1621 21.255 67.455 21.5726C69.8552 24.1997 72.2554 26.8268 74.6555 29.4611C75.4628 30.3488 76.2771 31.2366 77.07 32.1315C77.1629 32.2325 77.1843 32.4058 77.2486 32.5934C77.0629 32.6006 76.9629 32.6151 76.87 32.6151C75.3913 32.6151 73.9198 32.6151 72.4411 32.6078C72.2911 32.6078 72.1054 32.5285 72.0054 32.4202C69.9623 30.1828 67.9336 27.931 65.8978 25.6864C64.962 24.6544 64.0262 23.6151 63.0904 22.583C63.019 22.5036 62.9547 22.4242 62.8332 22.2871V32.6006H58.2758V0.295898H62.8047V19.162C62.919 19.0537 62.9904 19.0032 63.0475 18.9455C65.0263 16.737 67.005 14.5285 68.9837 12.32C69.7838 11.425 70.5838 10.5301 71.391 9.64233C71.4553 9.57016 71.591 9.51242 71.691 9.51242C73.1697 9.5052 74.6413 9.51242 76.1199 9.51242C76.1985 9.51242 76.3342 9.56294 76.3485 9.60624C76.37 9.68563 76.3271 9.80833 76.27 9.87328C74.4484 11.9014 72.6125 13.9222 70.7838 15.9431C69.4123 17.4587 68.0408 18.9743 66.6692 20.49C66.6407 20.5188 66.6192 20.5621 66.5835 20.6127L66.5907 20.6054Z" fill="#282929"/>
<path d="M38.81 32.6006H34.274V0.295898H38.7958V19.1475C38.8958 19.0609 38.96 19.0248 39.0029 18.9743C41.3959 16.3039 43.7818 13.6407 46.1677 10.9703C46.5535 10.5445 46.9249 10.1042 47.3178 9.69285C47.4178 9.59181 47.5893 9.51242 47.7321 9.51242C49.168 9.49798 50.5966 9.5052 52.0324 9.51242C52.1325 9.51242 52.2396 9.57737 52.3396 9.61346C52.2968 9.7145 52.2825 9.8372 52.211 9.91659C51.2038 11.0353 50.1966 12.154 49.1894 13.2654C47.4035 15.2358 45.6177 17.2133 43.8318 19.1836C43.4104 19.6455 42.9889 20.1074 42.5389 20.5982C42.8746 20.9663 43.1961 21.3344 43.5247 21.688C45.6748 24.0481 47.825 26.4082 49.9823 28.761C51.0038 29.8797 52.0253 30.9984 53.0397 32.1243C53.1397 32.2325 53.154 32.4202 53.2254 32.6151C51.5181 32.6151 49.9109 32.6151 48.3036 32.6151C48.225 32.6151 48.1179 32.5645 48.0679 32.4996C46.4606 30.7313 44.8533 28.9631 43.2461 27.1876C41.8174 25.607 40.3887 24.0265 38.9529 22.4459C38.9243 22.417 38.8886 22.3953 38.8172 22.3448V32.6078L38.81 32.6006Z" fill="#282928"/>
<path d="M104.165 21.0601C104.108 23.5068 103.472 26.1195 101.829 28.4146C100.472 30.3127 98.6502 31.5397 96.4358 32.1315C93.6427 32.8749 90.8568 32.8244 88.1352 31.7995C85.3635 30.753 83.5062 28.7321 82.399 25.9896C81.6132 24.0409 81.2847 21.9984 81.4132 19.9054C81.5775 17.2277 82.3419 14.745 84.0134 12.6159C85.435 10.8043 87.2851 9.66399 89.4995 9.14434C92.264 8.49478 95.0071 8.57417 97.6573 9.6712C100.679 10.927 102.501 13.2943 103.501 16.3761C103.958 17.7763 104.165 19.2269 104.172 21.0457L104.165 21.0601ZM99.6503 20.6848C99.6646 19.4074 99.4217 18.1732 98.986 16.9896C98.4359 15.4956 97.5716 14.2326 96.1715 13.4242C94.8857 12.6808 93.4927 12.486 92.0354 12.6159C89.9281 12.8035 88.2852 13.7706 87.2351 15.6327C85.685 18.3753 85.5207 21.2694 86.5279 24.2358C87.0422 25.7514 87.8994 27.0216 89.2781 27.8877C90.4853 28.6383 91.814 28.8476 93.207 28.7827C95.2428 28.6961 96.9001 27.8733 98.0716 26.1628C99.1931 24.5172 99.6146 22.6552 99.6574 20.6921L99.6503 20.6848Z" fill="#282928"/>
<path d="M23.2231 0.274256C25.2376 0.216518 27.3163 1.8765 27.3234 4.38091C27.3234 6.91419 25.3304 8.47313 23.1874 8.4587C20.9158 8.44426 19.2014 6.70489 19.2014 4.39535C19.2014 2.06415 20.9515 0.274256 23.2231 0.274256Z" fill="#FCDF00"/>
<path d="M111.194 15.2718C111.265 15.2718 111.33 15.2574 111.394 15.2574C113.466 15.2574 115.53 15.2357 117.602 15.279C118.966 15.3079 120.223 15.7193 121.23 16.7225C123.066 18.5629 122.831 21.5365 120.73 23.0665C120.688 23.0954 120.652 23.1315 120.616 23.1531C120.952 23.4851 121.323 23.7666 121.588 24.1347C123.395 26.5886 122.266 29.9086 119.316 30.8035C118.623 31.0128 117.887 31.1211 117.166 31.1427C115.23 31.186 113.287 31.1572 111.351 31.1572C111.308 31.1572 111.265 31.1572 111.201 31.1427V15.279L111.194 15.2718ZM113.437 22.2654C114.58 22.2654 115.701 22.2654 116.816 22.2654C117.223 22.2654 117.637 22.2654 118.037 22.2077C119.802 21.9334 120.673 20.0353 119.752 18.4908C119.195 17.5597 118.309 17.271 117.309 17.2494C116.101 17.2277 114.894 17.2494 113.687 17.2494C113.608 17.2494 113.523 17.2638 113.437 17.271V22.2726V22.2654ZM113.444 29.0858C113.487 29.1002 113.516 29.1147 113.544 29.1147C114.88 29.1147 116.216 29.1435 117.552 29.1074C118.445 29.0786 119.23 28.7394 119.737 27.931C120.409 26.8556 120.173 25.4483 119.209 24.7987C118.602 24.3945 117.902 24.3151 117.202 24.3079C116.051 24.2935 114.894 24.3079 113.744 24.3079C113.644 24.3079 113.537 24.3151 113.437 24.3224V29.093L113.444 29.0858Z" fill="#282928"/>
<path d="M183.464 30.1901C182.685 29.8147 182.221 29.2157 182.292 28.2991C182.356 27.4402 182.706 26.7763 183.607 26.4731C183.542 26.3577 183.485 26.2638 183.421 26.1628C182.428 24.5605 182.521 22.4819 183.664 21.0024C184.299 20.1796 185.178 19.7755 186.185 19.66C187.178 19.5445 188.15 19.6167 189.071 20.093C189.15 20.1291 189.314 20.0858 189.393 20.0136C189.886 19.5734 190.364 19.1259 190.9 18.6279C191.264 19.0609 191.621 19.4795 192.007 19.9415C191.721 20.2446 191.393 20.6415 191.021 20.988C190.671 21.32 190.571 21.5942 190.771 22.1139C191.414 23.745 191.2 25.3039 190.057 26.6752C189.464 27.3825 188.657 27.7289 187.764 27.8661C186.935 27.996 186.121 27.9455 185.314 27.6784C184.857 27.5269 184.399 27.7506 184.221 28.1764C184.028 28.6383 184.171 29.1435 184.621 29.3456C184.964 29.4972 185.357 29.5982 185.728 29.6271C186.628 29.6848 187.535 29.6415 188.435 29.7209C189.036 29.7787 189.65 29.9158 190.214 30.1179C191.993 30.7674 192.136 32.7883 191.429 33.9575C190.814 34.9751 189.893 35.5381 188.764 35.7835C187.171 36.1371 185.6 36.0649 184.085 35.4298C182.921 34.939 182.114 34.0946 182.021 32.7594C181.949 31.6913 182.371 30.8613 183.321 30.3344C183.357 30.3127 183.399 30.2911 183.428 30.2694C183.442 30.255 183.442 30.2334 183.464 30.1828V30.1901ZM188.907 23.5718C188.821 23.3047 188.743 22.8139 188.521 22.3953C187.95 21.3055 186.385 21.1395 185.55 22.0417C184.878 22.7634 184.749 24.1203 185.257 25.0658C185.771 26.0184 186.971 26.3649 187.893 25.7947C188.628 25.34 188.828 24.6038 188.907 23.5718ZM186.921 31.4892C186.921 31.4892 186.921 31.5253 186.921 31.5469C186.792 31.5469 186.664 31.5325 186.535 31.5469C185.9 31.6263 185.242 31.6479 184.635 31.8212C183.914 32.0232 183.778 32.7883 184.328 33.3079C184.542 33.51 184.814 33.6616 185.092 33.7698C185.835 34.0658 186.614 34.1307 187.4 34.073C188.057 34.0224 188.7 33.9286 189.257 33.5317C189.65 33.2502 189.871 32.8749 189.778 32.3913C189.7 31.9655 189.336 31.8139 188.971 31.749C188.3 31.6407 187.614 31.5758 186.935 31.4892H186.921Z" fill="#282929"/>
<path d="M144.975 19.7971H147.332C148.211 22.0128 149.09 24.2213 149.997 26.4948C150.233 25.8957 150.447 25.3544 150.654 24.8131C151.29 23.1676 151.918 21.522 152.561 19.8837C152.597 19.7899 152.704 19.7249 152.783 19.6455C152.861 19.7321 152.983 19.7971 153.018 19.8981C153.833 21.9984 154.633 24.0986 155.44 26.1916C155.469 26.271 155.504 26.3432 155.569 26.4803C156.476 24.2213 157.362 22.0128 158.247 19.7971H160.619C160.219 20.7354 159.819 21.6736 159.419 22.6046C158.212 25.4122 156.997 28.2269 155.79 31.0345C155.733 31.1716 155.69 31.3304 155.512 31.2654C155.419 31.2293 155.319 31.1211 155.276 31.02C154.49 29.0641 153.711 27.1082 152.926 25.1451C152.883 25.0441 152.833 24.9503 152.761 24.7915C152.497 25.441 152.254 26.0401 152.011 26.6319C151.426 28.0754 150.847 29.5188 150.254 30.9623C150.197 31.0922 150.19 31.3376 149.961 31.2582C149.847 31.2221 149.733 31.0922 149.69 30.9767C148.154 27.3464 146.618 23.7089 145.089 20.0786C145.054 19.992 145.025 19.8981 144.989 19.7971H144.975Z" fill="#2A2A2A"/>
<path d="M135.539 25.9246C135.689 26.9062 135.967 27.7867 136.66 28.494C137.282 29.1291 138.06 29.36 138.917 29.3528C140.182 29.3528 141.296 28.9342 142.232 28.0393C142.625 28.5012 143.011 28.9559 143.404 29.425C141.946 30.8757 140.196 31.4459 138.167 31.2438C136.896 31.1139 135.767 30.6664 134.874 29.7209C134.074 28.8693 133.624 27.8372 133.431 26.6896C133.124 24.8781 133.389 23.1676 134.446 21.6303C135.274 20.4322 136.46 19.8115 137.875 19.6022C138.946 19.4434 140.003 19.494 141.003 19.9487C142.382 20.5838 143.132 21.7241 143.325 23.1965C143.432 23.9831 143.346 24.7987 143.354 25.5926C143.354 25.8669 143.232 25.9318 142.975 25.9246C140.618 25.9174 138.26 25.9246 135.896 25.9246H135.524H135.539ZM135.674 24.2069H141.332C141.418 23.3191 141.253 22.5397 140.568 21.9551C139.982 21.4643 139.282 21.356 138.546 21.3993C136.996 21.4859 135.896 22.749 135.674 24.2069Z" fill="#282929"/>
<path d="M169.384 19.6022H171.663V20.4106C172.234 20.1868 172.77 19.8909 173.341 19.7682C174.777 19.4579 176.192 19.5445 177.463 20.3889C178.47 21.0601 178.913 22.1066 179.106 23.2614C179.199 23.8027 179.249 24.3584 179.256 24.9142C179.27 26.9278 179.256 28.9414 179.256 30.9551C179.256 31.0056 179.256 31.0633 179.249 31.1283H177.027V30.7746C177.027 29.0208 177.035 27.267 177.027 25.5204C177.027 24.9431 176.992 24.3729 176.927 23.8027C176.699 21.8757 175.334 21.2333 173.706 21.587C173.256 21.6808 172.827 21.919 172.434 22.1716C171.927 22.4892 171.641 22.9222 171.656 23.6151C171.706 26.1267 171.677 28.6455 171.677 31.1788H169.398V19.6022H169.384Z" fill="#282929"/>
<path d="M131.46 21.6592C130.36 21.5148 129.36 21.587 128.488 22.2582C128.095 22.5613 127.881 22.9294 127.888 23.4779C127.909 25.9246 127.895 28.3713 127.895 30.8252C127.895 30.9406 127.895 31.0561 127.895 31.186H125.609V19.6167H127.888V20.4972C129.124 19.6961 130.41 19.4507 131.817 19.7321C131.695 20.3817 131.581 21.0168 131.467 21.6592H131.46Z" fill="#2A2A2A"/>
<path d="M163.312 19.7971H165.577V31.1788H163.312V19.7971Z" fill="#2A2B2B"/>
<path d="M164.441 17.6391C163.669 17.6391 163.134 17.0834 163.141 16.2967C163.141 15.5678 163.734 14.9615 164.441 14.9543C165.155 14.9471 165.805 15.6038 165.798 16.3328C165.791 17.0762 165.198 17.6391 164.441 17.6391Z" fill="#2A2B2B"/>
</g>
<defs>
<clipPath id="clip0_18_710">
<rect width="192" height="36" fill="white"/>
</clipPath>
</defs>
</svg>
